<?xml version="1.0" encoding="utf-8"?>
<!-- Generator: Adobe Illustrator 17.1.0, SVG Export Plug-In . SVG Version: 6.00 Build 0)  -->
<!DOCTYPE svg PUBLIC "-//W3C//DTD SVG 1.1//EN" "http://www.w3.org/Graphics/SVG/1.1/DTD/svg11.dtd">
<svg version="1.1" id="Layer_1" xmlns="http://www.w3.org/2000/svg" xmlns:xlink="http://www.w3.org/1999/xlink" x="0px" y="0px"
	 viewBox="0 0 60 85" enable-background="new 0 0 60 85" xml:space="preserve">
<g>
	<circle fill="#2E363F" cx="30" cy="28.3" r="8.5"/>
	<path fill="#2E363F" d="M6,39.7c-0.6-2.8-1.1-5.7-1.3-8.6c-0.1-0.9-0.1-1.8-0.1-2.7s0.1-1.8,0.1-2.7C6,12.8,16.8,2.8,30,2.8
		c13.2,0,24,10,25.4,22.8c0.1,0.9,0.1,1.8,0.1,2.7s-0.1,1.8-0.1,2.7c-0.2,3-0.7,5.8-1.3,8.6h3.1c0.8-3.7,1.2-7.4,1.2-11.3
		c0-6.5-2.2-12.5-5.9-17.3C47.2,4.3,39.1,0,30,0C20.9,0,12.8,4.3,7.6,11c-3.7,4.8-5.9,10.8-5.9,17.3c0,3.9,0.5,7.7,1.2,11.3H6z"/>
	<path fill="#C65D5E" d="M52.5,45.3c0,0.1-0.1,0.2-0.1,0.3C45.6,65.3,30,79.3,30,79.3S14.4,65.3,7.6,45.6c0-0.1-0.1-0.2-0.1-0.3H4.4
		C11.4,68.3,30,85,30,85s18.6-16.7,25.6-39.7H52.5z"/>
</g>
</svg>
